<?xml version="1.0" encoding="utf-8"?>
<!-- Generator: Adobe Illustrator 21.1.0, SVG Export Plug-In . SVG Version: 6.00 Build 0)  -->
<svg version="1.1" id="Capa_1" xmlns="http://www.w3.org/2000/svg" xmlns:xlink="http://www.w3.org/1999/xlink" x="0px" y="0px"
	 viewBox="0 0 512 512" style="enable-background:new 0 0 512 512;" xml:space="preserve">
<style type="text/css">
	.st0{fill:#E8E8E8;}
	.st1{fill:#063448;}
	.st2{fill:#5EC1CC;}
</style>
<circle class="st0" cx="258.8" cy="258.8" r="253.2"/>
<path class="st1" d="M392.7,456.5c-2.4,0-4.6-1.5-5.4-3.8L365,387.9H247.6l-22.3,64.7c-0.8,2.3-2.9,3.8-5.4,3.8h-88.2
	c-1.9,0-3.6-0.9-4.7-2.4c-1.1-1.5-1.3-3.5-0.7-5.2l125.3-339.2c0.8-2.2,3-3.7,5.3-3.7h100.7c3.1,0,5.7,2.5,5.7,5.7s-2.5,5.7-5.7,5.7
	H261L139.9,445.1h76l22.3-64.7c0.8-2.3,2.9-3.8,5.4-3.8h125.5c2.4,0,4.6,1.5,5.4,3.8l22.3,64.7L392.7,456.5z M348,325.7h-83.5
	c-1.8,0-3.6-0.9-4.6-2.4c-1.1-1.5-1.3-3.4-0.8-5.1l41.7-121.5c0.8-2.3,2.9-3.8,5.4-3.8l0,0c2.4,0,4.6,1.5,5.4,3.8l41.7,121.5
	c0.6,1.7,0.3,3.7-0.8,5.1S349.9,325.7,348,325.7z M272.5,314.3h67.6L306.3,216L272.5,314.3z"/>
<path class="st2" d="M506.3,105.9h-17.6V5.7c0-3.1-2.5-5.7-5.7-5.7s-5.7,2.5-5.7,5.7v100.2h-11.9H137.4V5.7c0-3.1-2.6-5.7-5.7-5.7
	c-3.1,0-5.7,2.5-5.7,5.7v100.2H5.7c-3.1,0-5.7,2.5-5.7,5.7c0,3.1,2.5,5.7,5.7,5.7h120.4v75.2H5.7c-3.1,0-5.7,2.5-5.7,5.7
	s2.5,5.7,5.7,5.7h120.4v241.3H87.4c4.3,3.9,8.7,7.7,13.2,11.4h25.4v17.9c3.7,2.3,7.5,4.5,11.4,6.6v-24.5H417
	c4.5-3.6,8.9-7.4,13.2-11.4H137.4V203.8h339.9v182.9c4.1-7,7.9-14.3,11.4-21.7V203.8H506c-0.8-3.8-1.8-7.6-2.8-11.4h-14.5v-75.2
	h17.6c3.1,0,5.7-2.5,5.7-5.7C512,108.4,509.5,105.9,506.3,105.9z M477.4,192.5H137.4v-75.2h328.1h11.9L477.4,192.5L477.4,192.5z"/>
</svg>
